<!--?xml version="1.0" standalone="no"?-->
              <svg id="sw-js-blob-svg" viewBox="0 0 100 100" xmlns="http://www.w3.org/2000/svg" version="1.1">
                    <defs> 
                        <linearGradient id="sw-gradient" x1="0" x2="1" y1="1" y2="0">
                            <stop id="stop1" stop-color="rgba(26, 83, 92, 1)" offset="0%"></stop>
                            <stop id="stop2" stop-color="rgba(247, 255, 247, 1)" offset="100%"></stop>
                        </linearGradient>
                    </defs>
                <path fill="url(#sw-gradient)" d="M18.7,-26.7C25.5,-24.6,33.4,-21.7,35.6,-16.4C37.9,-11.1,34.4,-3.3,32.3,4C30.2,11.2,29.4,18,25.4,21.4C21.5,24.8,14.4,24.8,7.9,26.7C1.4,28.5,-4.6,32.1,-11.7,33.1C-18.8,34,-27.1,32.3,-30.4,27.1C-33.7,21.9,-32.1,13.1,-33.1,4.9C-34,-3.4,-37.6,-11.1,-35.9,-17C-34.1,-22.8,-27,-26.9,-20.1,-29C-13.2,-31.1,-6.6,-31.3,-0.4,-30.7C5.9,-30.1,11.8,-28.8,18.7,-26.7Z" width="100%" height="100%" transform="translate(50 50)" stroke-width="0" style="transition: 0.3s;" stroke="url(#sw-gradient)"></path>
              </svg>